<mxfile host="Electron" agent="Mozilla/5.0 (Windows NT 10.0; Win64; x64) AppleWebKit/537.36 (KHTML, like Gecko) draw.io/28.0.6 Chrome/138.0.7204.100 Electron/37.2.3 Safari/537.36" version="28.0.6">
  <diagram name="第 1 页" id="uOn0SmfI0yPcDQvzSCrN">
    <mxGraphModel dx="1042" dy="722" grid="1" gridSize="10" guides="1" tooltips="1" connect="1" arrows="1" fold="1" page="1" pageScale="1" pageWidth="827" pageHeight="1169" math="0" shadow="0">
      <root>
        <mxCell id="0" />
        <mxCell id="1" parent="0" />
        <mxCell id="OTty_-bSCkuFEAAzwOe2-79" value="" style="rounded=1;whiteSpace=wrap;html=1;absoluteArcSize=1;arcSize=14;strokeWidth=2;fillColor=#f5f5f5;strokeColor=#666666;fontColor=#333333;" parent="1" vertex="1">
          <mxGeometry x="458" y="210" width="292" height="200" as="geometry" />
        </mxCell>
        <mxCell id="OTty_-bSCkuFEAAzwOe2-48" style="edgeStyle=orthogonalEdgeStyle;rounded=0;orthogonalLoop=1;jettySize=auto;html=1;exitX=0.5;exitY=1;exitDx=0;exitDy=0;exitPerimeter=0;entryX=0.5;entryY=0;entryDx=0;entryDy=0;" parent="1" source="OTty_-bSCkuFEAAzwOe2-39" target="OTty_-bSCkuFEAAzwOe2-40" edge="1">
          <mxGeometry relative="1" as="geometry" />
        </mxCell>
        <mxCell id="OTty_-bSCkuFEAAzwOe2-39" value="开始" style="strokeWidth=2;html=1;shape=mxgraph.flowchart.start_1;whiteSpace=wrap;" parent="1" vertex="1">
          <mxGeometry x="565" y="160" width="80" height="40" as="geometry" />
        </mxCell>
        <mxCell id="OTty_-bSCkuFEAAzwOe2-49" style="edgeStyle=orthogonalEdgeStyle;rounded=0;orthogonalLoop=1;jettySize=auto;html=1;exitX=0.5;exitY=1;exitDx=0;exitDy=0;entryX=0.5;entryY=0;entryDx=0;entryDy=0;" parent="1" source="OTty_-bSCkuFEAAzwOe2-40" target="OTty_-bSCkuFEAAzwOe2-41" edge="1">
          <mxGeometry relative="1" as="geometry" />
        </mxCell>
        <mxCell id="OTty_-bSCkuFEAAzwOe2-40" value="随机生成初始种群" style="rounded=1;whiteSpace=wrap;html=1;absoluteArcSize=1;arcSize=14;strokeWidth=2;" parent="1" vertex="1">
          <mxGeometry x="545" y="220" width="120" height="30" as="geometry" />
        </mxCell>
        <mxCell id="OTty_-bSCkuFEAAzwOe2-44" style="rounded=0;orthogonalLoop=1;jettySize=auto;html=1;exitX=0.5;exitY=1;exitDx=0;exitDy=0;entryX=0.5;entryY=0;entryDx=0;entryDy=0;" parent="1" source="OTty_-bSCkuFEAAzwOe2-41" target="OTty_-bSCkuFEAAzwOe2-42" edge="1">
          <mxGeometry relative="1" as="geometry" />
        </mxCell>
        <mxCell id="OTty_-bSCkuFEAAzwOe2-45" style="rounded=0;orthogonalLoop=1;jettySize=auto;html=1;exitX=0.5;exitY=1;exitDx=0;exitDy=0;entryX=0.5;entryY=0;entryDx=0;entryDy=0;" parent="1" source="OTty_-bSCkuFEAAzwOe2-41" target="OTty_-bSCkuFEAAzwOe2-43" edge="1">
          <mxGeometry relative="1" as="geometry" />
        </mxCell>
        <mxCell id="OTty_-bSCkuFEAAzwOe2-41" value="对每个个体调用修复函数" style="rounded=1;whiteSpace=wrap;html=1;absoluteArcSize=1;arcSize=14;strokeWidth=2;" parent="1" vertex="1">
          <mxGeometry x="530" y="270" width="150" height="30" as="geometry" />
        </mxCell>
        <mxCell id="OTty_-bSCkuFEAAzwOe2-50" style="rounded=0;orthogonalLoop=1;jettySize=auto;html=1;exitX=0.5;exitY=1;exitDx=0;exitDy=0;entryX=0.5;entryY=0;entryDx=0;entryDy=0;" parent="1" source="OTty_-bSCkuFEAAzwOe2-42" target="OTty_-bSCkuFEAAzwOe2-47" edge="1">
          <mxGeometry relative="1" as="geometry" />
        </mxCell>
        <mxCell id="OTty_-bSCkuFEAAzwOe2-42" value="修复豆类缺失问题" style="rounded=1;whiteSpace=wrap;html=1;absoluteArcSize=1;arcSize=14;strokeWidth=2;" parent="1" vertex="1">
          <mxGeometry x="470" y="320" width="120" height="30" as="geometry" />
        </mxCell>
        <mxCell id="OTty_-bSCkuFEAAzwOe2-51" style="rounded=0;orthogonalLoop=1;jettySize=auto;html=1;exitX=0.5;exitY=1;exitDx=0;exitDy=0;entryX=0.5;entryY=0;entryDx=0;entryDy=0;" parent="1" source="OTty_-bSCkuFEAAzwOe2-43" target="OTty_-bSCkuFEAAzwOe2-47" edge="1">
          <mxGeometry relative="1" as="geometry" />
        </mxCell>
        <mxCell id="OTty_-bSCkuFEAAzwOe2-43" value="修复重茬问题" style="rounded=1;whiteSpace=wrap;html=1;absoluteArcSize=1;arcSize=14;strokeWidth=2;" parent="1" vertex="1">
          <mxGeometry x="620" y="320" width="120" height="30" as="geometry" />
        </mxCell>
        <mxCell id="OTty_-bSCkuFEAAzwOe2-47" value="评估初始种群所有个体适应度" style="rounded=1;whiteSpace=wrap;html=1;absoluteArcSize=1;arcSize=14;strokeWidth=2;" parent="1" vertex="1">
          <mxGeometry x="515" y="370" width="180" height="30" as="geometry" />
        </mxCell>
        <mxCell id="OTty_-bSCkuFEAAzwOe2-57" style="edgeStyle=orthogonalEdgeStyle;rounded=0;orthogonalLoop=1;jettySize=auto;html=1;exitX=0.5;exitY=1;exitDx=0;exitDy=0;exitPerimeter=0;entryX=0.5;entryY=0;entryDx=0;entryDy=0;" parent="1" source="OTty_-bSCkuFEAAzwOe2-52" target="OTty_-bSCkuFEAAzwOe2-56" edge="1">
          <mxGeometry relative="1" as="geometry" />
        </mxCell>
        <mxCell id="OTty_-bSCkuFEAAzwOe2-60" value="是" style="edgeLabel;html=1;align=center;verticalAlign=middle;resizable=0;points=[];" parent="OTty_-bSCkuFEAAzwOe2-57" vertex="1" connectable="0">
          <mxGeometry x="-0.131" relative="1" as="geometry">
            <mxPoint as="offset" />
          </mxGeometry>
        </mxCell>
        <mxCell id="OTty_-bSCkuFEAAzwOe2-92" style="edgeStyle=orthogonalEdgeStyle;rounded=0;orthogonalLoop=1;jettySize=auto;html=1;" parent="1" source="OTty_-bSCkuFEAAzwOe2-52" edge="1">
          <mxGeometry relative="1" as="geometry">
            <mxPoint x="400" y="470" as="targetPoint" />
          </mxGeometry>
        </mxCell>
        <mxCell id="OTty_-bSCkuFEAAzwOe2-93" value="否" style="edgeLabel;html=1;align=center;verticalAlign=middle;resizable=0;points=[];" parent="OTty_-bSCkuFEAAzwOe2-92" vertex="1" connectable="0">
          <mxGeometry x="-0.0812" y="1" relative="1" as="geometry">
            <mxPoint as="offset" />
          </mxGeometry>
        </mxCell>
        <mxCell id="OTty_-bSCkuFEAAzwOe2-52" value="达到最大&lt;div&gt;迭代次数？&lt;/div&gt;" style="strokeWidth=2;html=1;shape=mxgraph.flowchart.decision;whiteSpace=wrap;" parent="1" vertex="1">
          <mxGeometry x="557.5" y="440" width="95" height="60" as="geometry" />
        </mxCell>
        <mxCell id="OTty_-bSCkuFEAAzwOe2-54" style="edgeStyle=orthogonalEdgeStyle;rounded=0;orthogonalLoop=1;jettySize=auto;html=1;exitX=0.5;exitY=1;exitDx=0;exitDy=0;entryX=0.5;entryY=0;entryDx=0;entryDy=0;entryPerimeter=0;" parent="1" source="OTty_-bSCkuFEAAzwOe2-47" target="OTty_-bSCkuFEAAzwOe2-52" edge="1">
          <mxGeometry relative="1" as="geometry" />
        </mxCell>
        <mxCell id="OTty_-bSCkuFEAAzwOe2-56" value="输出历史最优个体" style="rounded=1;whiteSpace=wrap;html=1;absoluteArcSize=1;arcSize=14;strokeWidth=2;" parent="1" vertex="1">
          <mxGeometry x="547.5" y="531.76" width="115" height="30" as="geometry" />
        </mxCell>
        <mxCell id="OTty_-bSCkuFEAAzwOe2-58" value="结束" style="strokeWidth=2;html=1;shape=mxgraph.flowchart.start_1;whiteSpace=wrap;" parent="1" vertex="1">
          <mxGeometry x="565" y="581.76" width="80" height="40" as="geometry" />
        </mxCell>
        <mxCell id="OTty_-bSCkuFEAAzwOe2-59" style="edgeStyle=orthogonalEdgeStyle;rounded=0;orthogonalLoop=1;jettySize=auto;html=1;exitX=0.5;exitY=1;exitDx=0;exitDy=0;entryX=0.5;entryY=0;entryDx=0;entryDy=0;entryPerimeter=0;" parent="1" source="OTty_-bSCkuFEAAzwOe2-56" target="OTty_-bSCkuFEAAzwOe2-58" edge="1">
          <mxGeometry relative="1" as="geometry" />
        </mxCell>
        <mxCell id="OTty_-bSCkuFEAAzwOe2-81" value="&lt;b&gt;&lt;font style=&quot;font-size: 16px;&quot;&gt;初&lt;/font&gt;&lt;/b&gt;&lt;div&gt;&lt;b&gt;&lt;font style=&quot;font-size: 16px;&quot;&gt;始&lt;/font&gt;&lt;/b&gt;&lt;/div&gt;&lt;div&gt;&lt;b&gt;&lt;font style=&quot;font-size: 16px;&quot;&gt;化&lt;/font&gt;&lt;/b&gt;&lt;/div&gt;&lt;div&gt;&lt;b&gt;&lt;font style=&quot;font-size: 16px;&quot;&gt;阶&lt;/font&gt;&lt;/b&gt;&lt;/div&gt;&lt;div&gt;&lt;b&gt;&lt;font style=&quot;font-size: 16px;&quot;&gt;段&lt;/font&gt;&lt;/b&gt;&lt;/div&gt;" style="text;html=1;align=center;verticalAlign=middle;resizable=0;points=[];autosize=1;strokeColor=none;fillColor=none;" parent="1" vertex="1">
          <mxGeometry x="458" y="210" width="40" height="110" as="geometry" />
        </mxCell>
        <mxCell id="OTty_-bSCkuFEAAzwOe2-85" value="" style="group" parent="1" vertex="1" connectable="0">
          <mxGeometry x="110" y="160" width="292" height="460" as="geometry" />
        </mxCell>
        <mxCell id="OTty_-bSCkuFEAAzwOe2-80" value="" style="rounded=1;whiteSpace=wrap;html=1;absoluteArcSize=1;arcSize=14;strokeWidth=2;fillColor=#f5f5f5;strokeColor=#666666;fontColor=#333333;movable=0;resizable=0;rotatable=0;deletable=0;editable=0;locked=1;connectable=0;" parent="OTty_-bSCkuFEAAzwOe2-85" vertex="1">
          <mxGeometry width="292" height="460" as="geometry" />
        </mxCell>
        <mxCell id="OTty_-bSCkuFEAAzwOe2-89" style="edgeStyle=orthogonalEdgeStyle;rounded=0;orthogonalLoop=1;jettySize=auto;html=1;exitX=0.5;exitY=1;exitDx=0;exitDy=0;entryX=0.5;entryY=0;entryDx=0;entryDy=0;" parent="OTty_-bSCkuFEAAzwOe2-85" source="OTty_-bSCkuFEAAzwOe2-61" target="OTty_-bSCkuFEAAzwOe2-63" edge="1">
          <mxGeometry relative="1" as="geometry" />
        </mxCell>
        <mxCell id="OTty_-bSCkuFEAAzwOe2-61" value="选择父代（锦标赛选择）" style="rounded=1;whiteSpace=wrap;html=1;absoluteArcSize=1;arcSize=14;strokeWidth=2;" parent="OTty_-bSCkuFEAAzwOe2-85" vertex="1">
          <mxGeometry x="71" y="22.24000000000001" width="150" height="30" as="geometry" />
        </mxCell>
        <mxCell id="OTty_-bSCkuFEAAzwOe2-90" style="edgeStyle=orthogonalEdgeStyle;rounded=0;orthogonalLoop=1;jettySize=auto;html=1;exitX=0.5;exitY=1;exitDx=0;exitDy=0;entryX=0.5;entryY=0;entryDx=0;entryDy=0;" parent="OTty_-bSCkuFEAAzwOe2-85" source="OTty_-bSCkuFEAAzwOe2-63" target="OTty_-bSCkuFEAAzwOe2-64" edge="1">
          <mxGeometry relative="1" as="geometry" />
        </mxCell>
        <mxCell id="OTty_-bSCkuFEAAzwOe2-63" value="交叉操作（按地块交叉）" style="rounded=1;whiteSpace=wrap;html=1;absoluteArcSize=1;arcSize=14;strokeWidth=2;" parent="OTty_-bSCkuFEAAzwOe2-85" vertex="1">
          <mxGeometry x="71" y="78" width="150" height="30" as="geometry" />
        </mxCell>
        <mxCell id="OTty_-bSCkuFEAAzwOe2-91" style="edgeStyle=orthogonalEdgeStyle;rounded=0;orthogonalLoop=1;jettySize=auto;html=1;exitX=0.5;exitY=1;exitDx=0;exitDy=0;entryX=0.5;entryY=0;entryDx=0;entryDy=0;" parent="OTty_-bSCkuFEAAzwOe2-85" source="OTty_-bSCkuFEAAzwOe2-64" target="OTty_-bSCkuFEAAzwOe2-67" edge="1">
          <mxGeometry relative="1" as="geometry" />
        </mxCell>
        <mxCell id="OTty_-bSCkuFEAAzwOe2-64" value="变异操作（引导式变异）" style="rounded=1;whiteSpace=wrap;html=1;absoluteArcSize=1;arcSize=14;strokeWidth=2;" parent="OTty_-bSCkuFEAAzwOe2-85" vertex="1">
          <mxGeometry x="71" y="134" width="150" height="30" as="geometry" />
        </mxCell>
        <mxCell id="OTty_-bSCkuFEAAzwOe2-65" style="rounded=0;orthogonalLoop=1;jettySize=auto;html=1;exitX=0.5;exitY=1;exitDx=0;exitDy=0;entryX=0.5;entryY=0;entryDx=0;entryDy=0;" parent="OTty_-bSCkuFEAAzwOe2-85" source="OTty_-bSCkuFEAAzwOe2-67" target="OTty_-bSCkuFEAAzwOe2-69" edge="1">
          <mxGeometry relative="1" as="geometry" />
        </mxCell>
        <mxCell id="OTty_-bSCkuFEAAzwOe2-66" style="rounded=0;orthogonalLoop=1;jettySize=auto;html=1;exitX=0.5;exitY=1;exitDx=0;exitDy=0;entryX=0.5;entryY=0;entryDx=0;entryDy=0;" parent="OTty_-bSCkuFEAAzwOe2-85" source="OTty_-bSCkuFEAAzwOe2-67" target="OTty_-bSCkuFEAAzwOe2-71" edge="1">
          <mxGeometry relative="1" as="geometry" />
        </mxCell>
        <mxCell id="OTty_-bSCkuFEAAzwOe2-67" value="对生成的新个体调用修复函数" style="rounded=1;whiteSpace=wrap;html=1;absoluteArcSize=1;arcSize=14;strokeWidth=2;" parent="OTty_-bSCkuFEAAzwOe2-85" vertex="1">
          <mxGeometry x="56" y="190" width="180" height="30" as="geometry" />
        </mxCell>
        <mxCell id="OTty_-bSCkuFEAAzwOe2-68" style="rounded=0;orthogonalLoop=1;jettySize=auto;html=1;exitX=0.5;exitY=1;exitDx=0;exitDy=0;entryX=0.5;entryY=0;entryDx=0;entryDy=0;" parent="OTty_-bSCkuFEAAzwOe2-85" source="OTty_-bSCkuFEAAzwOe2-69" target="OTty_-bSCkuFEAAzwOe2-72" edge="1">
          <mxGeometry relative="1" as="geometry" />
        </mxCell>
        <mxCell id="OTty_-bSCkuFEAAzwOe2-69" value="修复豆类缺失问题" style="rounded=1;whiteSpace=wrap;html=1;absoluteArcSize=1;arcSize=14;strokeWidth=2;" parent="OTty_-bSCkuFEAAzwOe2-85" vertex="1">
          <mxGeometry x="11" y="270" width="120" height="30" as="geometry" />
        </mxCell>
        <mxCell id="OTty_-bSCkuFEAAzwOe2-70" style="rounded=0;orthogonalLoop=1;jettySize=auto;html=1;exitX=0.5;exitY=1;exitDx=0;exitDy=0;entryX=0.5;entryY=0;entryDx=0;entryDy=0;" parent="OTty_-bSCkuFEAAzwOe2-85" source="OTty_-bSCkuFEAAzwOe2-71" target="OTty_-bSCkuFEAAzwOe2-72" edge="1">
          <mxGeometry relative="1" as="geometry" />
        </mxCell>
        <mxCell id="OTty_-bSCkuFEAAzwOe2-71" value="修复重茬问题" style="rounded=1;whiteSpace=wrap;html=1;absoluteArcSize=1;arcSize=14;strokeWidth=2;" parent="OTty_-bSCkuFEAAzwOe2-85" vertex="1">
          <mxGeometry x="161" y="270" width="120" height="30" as="geometry" />
        </mxCell>
        <mxCell id="OTty_-bSCkuFEAAzwOe2-72" value="评估新个体适应度" style="rounded=1;whiteSpace=wrap;html=1;absoluteArcSize=1;arcSize=14;strokeWidth=2;" parent="OTty_-bSCkuFEAAzwOe2-85" vertex="1">
          <mxGeometry x="56" y="340" width="180" height="30" as="geometry" />
        </mxCell>
        <mxCell id="OTty_-bSCkuFEAAzwOe2-76" value="" style="edgeStyle=orthogonalEdgeStyle;rounded=0;orthogonalLoop=1;jettySize=auto;html=1;exitX=0.5;exitY=1;exitDx=0;exitDy=0;entryX=0.5;entryY=0;entryDx=0;entryDy=0;entryPerimeter=0;" parent="OTty_-bSCkuFEAAzwOe2-85" source="OTty_-bSCkuFEAAzwOe2-72" target="OTty_-bSCkuFEAAzwOe2-74" edge="1">
          <mxGeometry relative="1" as="geometry">
            <mxPoint x="146" y="362.24" as="targetPoint" />
            <mxPoint x="146" y="302.24" as="sourcePoint" />
          </mxGeometry>
        </mxCell>
        <mxCell id="OTty_-bSCkuFEAAzwOe2-74" value="更新种群" style="rounded=1;whiteSpace=wrap;html=1;absoluteArcSize=1;arcSize=14;strokeWidth=2;" parent="OTty_-bSCkuFEAAzwOe2-85" vertex="1">
          <mxGeometry x="56" y="395" width="180" height="30" as="geometry" />
        </mxCell>
        <mxCell id="OTty_-bSCkuFEAAzwOe2-84" value="&lt;span style=&quot;font-size: 16px;&quot;&gt;&lt;b&gt;遗&lt;/b&gt;&lt;/span&gt;&lt;div&gt;&lt;span style=&quot;font-size: 16px;&quot;&gt;&lt;b&gt;传&lt;/b&gt;&lt;/span&gt;&lt;/div&gt;&lt;div&gt;&lt;span style=&quot;font-size: 16px;&quot;&gt;&lt;b&gt;进&lt;/b&gt;&lt;/span&gt;&lt;/div&gt;&lt;div&gt;&lt;span style=&quot;font-size: 16px;&quot;&gt;&lt;b&gt;化&lt;/b&gt;&lt;/span&gt;&lt;/div&gt;&lt;div&gt;&lt;span style=&quot;font-size: 16px;&quot;&gt;&lt;b&gt;循&lt;/b&gt;&lt;/span&gt;&lt;/div&gt;&lt;div&gt;&lt;span style=&quot;font-size: 16px;&quot;&gt;&lt;b&gt;环&lt;/b&gt;&lt;/span&gt;&lt;/div&gt;" style="text;html=1;align=center;verticalAlign=middle;resizable=0;points=[];autosize=1;strokeColor=none;fillColor=none;" parent="OTty_-bSCkuFEAAzwOe2-85" vertex="1">
          <mxGeometry width="40" height="130" as="geometry" />
        </mxCell>
        <mxCell id="OTty_-bSCkuFEAAzwOe2-98" value="" style="endArrow=classic;html=1;rounded=0;" parent="1" edge="1">
          <mxGeometry width="50" height="50" relative="1" as="geometry">
            <mxPoint x="400" y="420" as="sourcePoint" />
            <mxPoint x="605" y="420" as="targetPoint" />
          </mxGeometry>
        </mxCell>
      </root>
    </mxGraphModel>
  </diagram>
</mxfile>
